<svg xmlns="http://www.w3.org/2000/svg" viewBox="0 0 1200 760" role="img" aria-label="Landscape bed cleanup placeholder image"><rect width="1200" height="760" fill="#f5f3ee"/><rect y="380" width="1200" height="380" fill="#75826f"/><path d="M0 540 C210 410 430 400 650 520 C820 615 1000 600 1200 505 L1200 760 L0 760 Z" fill="#5a3828"/><path d="M80 625 C265 548 430 560 595 635 C760 708 960 695 1120 610" fill="none" stroke="#d8ccb5" stroke-width="42" stroke-linecap="round" opacity=".92"/><g><circle cx="220" cy="430" r="52" fill="#1f3328"/><circle cx="300" cy="455" r="40" fill="#506552"/><circle cx="405" cy="438" r="58" fill="#6f806f"/><circle cx="790" cy="440" r="55" fill="#1f3328"/><circle cx="880" cy="465" r="42" fill="#506552"/><circle cx="985" cy="440" r="58" fill="#6f806f"/></g><path d="M120 318 L315 210 L510 318 Z" fill="#fbfaf7" opacity=".85"/><rect x="170" y="318" width="290" height="94" rx="7" fill="#f4f1ea" opacity=".92"/></svg>