<svg xmlns="http://www.w3.org/2000/svg" viewBox="0 0 1200 760" role="img" aria-label="French drain installation placeholder image"><defs><linearGradient id="bg" x1="0" y1="0" x2="1" y2="1"><stop offset="0" stop-color="#f5f3ee"/><stop offset="1" stop-color="#d8ccb5"/></linearGradient><linearGradient id="soil" x1="0" y1="0" x2="0" y2="1"><stop offset="0" stop-color="#7a5b42"/><stop offset="1" stop-color="#3e2b21"/></linearGradient></defs><rect width="1200" height="760" fill="url(#bg)"/><rect y="415" width="1200" height="345" fill="#6f806f"/><path d="M0 460 C185 408 350 405 520 458 C675 506 820 502 1200 420 L1200 760 L0 760 Z" fill="#1f3328" opacity=".84"/><path d="M135 620 C335 455 582 440 755 595 C853 683 995 678 1110 604" fill="none" stroke="url(#soil)" stroke-width="125" stroke-linecap="round"/><path d="M155 607 C360 465 575 465 735 602 C846 698 994 686 1085 620" fill="none" stroke="#d8ccb5" stroke-width="60" stroke-linecap="round"/><path d="M175 604 C380 484 565 490 715 610 C838 708 975 692 1065 634" fill="none" stroke="#c7c0b4" stroke-width="24" stroke-linecap="round" stroke-dasharray="12 28"/><g fill="#fbfaf7" opacity=".72"><circle cx="246" cy="594" r="10"/><circle cx="372" cy="537" r="8"/><circle cx="502" cy="519" r="11"/><circle cx="654" cy="574" r="9"/><circle cx="820" cy="659" r="10"/><circle cx="950" cy="665" r="8"/></g><rect x="760" y="195" width="260" height="130" rx="18" fill="#fbfaf7" opacity=".9"/><rect x="790" y="225" width="200" height="18" rx="9" fill="#1f3328" opacity=".75"/><rect x="790" y="260" width="150" height="18" rx="9" fill="#6f806f" opacity=".85"/><path d="M170 390 L340 275 L485 390 Z" fill="#fbfaf7" opacity=".86"/><rect x="210" y="390" width="225" height="100" rx="8" fill="#f7f3ea" opacity=".9"/></svg>