<svg xmlns="http://www.w3.org/2000/svg" viewBox="0 0 1200 760" role="img" aria-label="Front yard landscape refresh placeholder image"><defs><linearGradient id="sky" x1="0" y1="0" x2="0" y2="1"><stop offset="0" stop-color="#e6ece4"/><stop offset="1" stop-color="#fbfaf7"/></linearGradient><filter id="s"><feDropShadow dx="0" dy="18" stdDeviation="18" flood-color="#111b16" flood-opacity=".16"/></filter></defs><rect width="1200" height="760" fill="url(#sky)"/><rect y="470" width="1200" height="290" fill="#6f806f"/><path d="M0 555 C210 490 375 520 535 588 C685 652 850 625 1200 525 L1200 760 L0 760 Z" fill="#1f3328" opacity=".9"/><path d="M120 465 L420 270 L740 465 Z" fill="#fbfaf7" filter="url(#s)"/><rect x="190" y="465" width="470" height="150" rx="9" fill="#f4f1ea" filter="url(#s)"/><rect x="245" y="510" width="95" height="70" rx="8" fill="#1f3328" opacity=".85"/><rect x="380" y="510" width="95" height="70" rx="8" fill="#1f3328" opacity=".85"/><rect x="545" y="495" width="72" height="120" rx="7" fill="#3a2a20"/><path d="M110 655 C270 600 420 618 575 670 C720 720 895 708 1090 638" fill="none" stroke="#d8ccb5" stroke-width="70" stroke-linecap="round"/><g><circle cx="145" cy="605" r="38" fill="#506552"/><circle cx="205" cy="622" r="44" fill="#75826f"/><circle cx="285" cy="620" r="35" fill="#506552"/><circle cx="850" cy="615" r="42" fill="#506552"/><circle cx="920" cy="632" r="50" fill="#75826f"/><circle cx="1015" cy="620" r="38" fill="#506552"/></g><path d="M80 690 C270 640 435 650 590 695 C760 744 910 728 1120 668" fill="none" stroke="#fbfaf7" stroke-width="20" stroke-linecap="round" opacity=".55"/></svg>