<svg xmlns="http://www.w3.org/2000/svg" viewBox="0 0 1200 900" role="img" aria-label="Finished residential landscape placeholder image"><defs><linearGradient id="sky" x1="0" y1="0" x2="0" y2="1"><stop offset="0" stop-color="#dfe7df"/><stop offset="1" stop-color="#f5f3ee"/></linearGradient><linearGradient id="lawn" x1="0" y1="0" x2="1" y2="1"><stop offset="0" stop-color="#6f806f"/><stop offset="1" stop-color="#1f3328"/></linearGradient><filter id="shadow"><feDropShadow dx="0" dy="24" stdDeviation="26" flood-color="#132019" flood-opacity=".24"/></filter></defs><rect width="1200" height="900" fill="url(#sky)"/><rect x="0" y="545" width="1200" height="355" fill="url(#lawn)"/><path d="M0 670 C220 570 430 590 620 690 C805 788 1020 740 1200 650 L1200 900 L0 900 Z" fill="#d8ccb5" opacity=".9"/><path d="M120 540 L520 315 L930 540 Z" fill="#fbfaf7" filter="url(#shadow)"/><path d="M210 540 L520 365 L840 540 Z" fill="#d8ccb5"/><rect x="270" y="540" width="500" height="185" rx="10" fill="#f7f3ea" filter="url(#shadow)"/><rect x="342" y="586" width="120" height="92" rx="8" fill="#1f3328" opacity=".88"/><rect x="510" y="586" width="120" height="92" rx="8" fill="#1f3328" opacity=".88"/><rect x="670" y="575" width="70" height="150" rx="7" fill="#2e2119"/><path d="M90 760 C240 700 380 710 525 770 C665 825 790 820 950 760" fill="none" stroke="#fbfaf7" stroke-width="72" stroke-linecap="round" opacity=".82"/><g opacity=".95"><circle cx="170" cy="610" r="58" fill="#1f3328"/><circle cx="125" cy="650" r="38" fill="#6f806f"/><circle cx="220" cy="664" r="46" fill="#6f806f"/><circle cx="1005" cy="610" r="62" fill="#1f3328"/><circle cx="955" cy="662" r="43" fill="#6f806f"/><circle cx="1072" cy="670" r="50" fill="#6f806f"/></g><path d="M102 742 C260 694 402 700 560 754 C740 815 900 795 1094 730" fill="none" stroke="#1f3328" stroke-width="18" stroke-linecap="round" opacity=".45"/></svg>