<svg xmlns="http://www.w3.org/2000/svg" viewBox="0 0 1200 760" role="img" aria-label="Irrigation and sod installation placeholder image"><defs><linearGradient id="grass" x1="0" y1="0" x2="1" y2="1"><stop offset="0" stop-color="#8c9a79"/><stop offset="1" stop-color="#1f3328"/></linearGradient></defs><rect width="1200" height="760" fill="#f4f1ea"/><rect y="250" width="1200" height="510" fill="url(#grass)"/><g opacity=".55" stroke="#fbfaf7" stroke-width="4"><path d="M-40 320 C180 270 385 290 600 350 C810 410 1010 395 1240 320"/><path d="M-30 420 C190 370 390 390 610 450 C820 505 1005 485 1230 420"/><path d="M-20 520 C195 475 395 490 610 550 C820 610 1010 585 1220 520"/></g><path d="M250 610 C390 485 600 450 760 535 C865 592 982 585 1080 510" fill="none" stroke="#d8ccb5" stroke-width="48" stroke-linecap="round"/><g fill="#fbfaf7"><rect x="185" y="235" width="160" height="72" rx="12" opacity=".92"/><rect x="205" y="256" width="118" height="12" rx="6" fill="#1f3328" opacity=".7"/><rect x="205" y="280" width="88" height="12" rx="6" fill="#506552" opacity=".8"/></g><g stroke="#e8f2e5" stroke-width="10" fill="none" stroke-linecap="round" opacity=".88"><path d="M525 375 C590 320 670 320 735 375"/><path d="M480 405 C580 300 685 300 780 405"/><path d="M435 438 C570 285 700 285 825 438"/></g><circle cx="630" cy="445" r="22" fill="#fbfaf7" opacity=".9"/><circle cx="630" cy="445" r="10" fill="#1f3328" opacity=".7"/><g fill="#d8ccb5" opacity=".85"><rect x="64" y="632" width="240" height="30" rx="8"/><rect x="62" y="674" width="260" height="30" rx="8"/><rect x="62" y="716" width="220" height="30" rx="8"/></g></svg>