<svg xmlns="http://www.w3.org/2000/svg" viewBox="0 0 1200 760" role="img" aria-label="Outdoor patio placeholder image"><defs><linearGradient id="sky" x1="0" y1="0" x2="0" y2="1"><stop offset="0" stop-color="#e7ece3"/><stop offset="1" stop-color="#fbfaf7"/></linearGradient></defs><rect width="1200" height="760" fill="url(#sky)"/><rect y="420" width="1200" height="340" fill="#506552"/><path d="M0 525 C215 470 375 500 540 565 C725 638 905 610 1200 505 L1200 760 L0 760 Z" fill="#1f3328" opacity=".82"/><path d="M140 625 L430 475 L1040 610 L735 742 Z" fill="#d8ccb5"/><g stroke="#8f826c" stroke-width="5" opacity=".45"><path d="M250 573 L840 705"/><path d="M390 502 L990 638"/><path d="M320 710 L600 536"/><path d="M545 742 L820 575"/></g><rect x="755" y="330" width="210" height="165" rx="12" fill="#72644f"/><rect x="785" y="365" width="150" height="48" rx="8" fill="#111b16" opacity=".78"/><rect x="795" y="428" width="130" height="18" rx="8" fill="#d8ccb5"/><rect x="285" y="455" width="180" height="85" rx="18" fill="#fbfaf7" opacity=".92"/><rect x="322" y="505" width="107" height="75" rx="15" fill="#1f3328" opacity=".72"/><path d="M190 395 C330 340 500 340 640 395" fill="none" stroke="#1f3328" stroke-width="16" stroke-linecap="round" opacity=".5"/><circle cx="185" cy="408" r="36" fill="#6f806f"/><circle cx="642" cy="408" r="38" fill="#6f806f"/></svg>