<svg xmlns="http://www.w3.org/2000/svg" viewBox="0 0 1200 760" role="img" aria-label="Retaining wall landscape placeholder image"><defs><linearGradient id="bg" x1="0" y1="0" x2="0" y2="1"><stop offset="0" stop-color="#f5f3ee"/><stop offset="1" stop-color="#d8ccb5"/></linearGradient></defs><rect width="1200" height="760" fill="url(#bg)"/><rect y="420" width="1200" height="340" fill="#506552"/><path d="M0 450 C250 360 460 380 640 455 C840 540 1030 500 1200 430 L1200 760 L0 760 Z" fill="#1f3328" opacity=".86"/><g transform="translate(120 360)"><rect x="0" y="0" width="960" height="70" rx="8" fill="#8a7a62"/><rect x="35" y="82" width="960" height="70" rx="8" fill="#72644f"/><rect x="0" y="164" width="960" height="70" rx="8" fill="#8a7a62"/><g stroke="#d8ccb5" stroke-width="4" opacity=".45"><path d="M160 0v70M360 0v70M560 0v70M760 0v70"/><path d="M225 82v70M425 82v70M625 82v70M825 82v70"/><path d="M160 164v70M360 164v70M560 164v70M760 164v70"/></g></g><path d="M130 335 C285 290 392 295 520 345 C675 406 830 385 1040 322" fill="none" stroke="#fbfaf7" stroke-width="55" stroke-linecap="round" opacity=".75"/><g fill="#6f806f"><circle cx="165" cy="310" r="35"/><circle cx="245" cy="294" r="48"/><circle cx="342" cy="305" r="38"/><circle cx="932" cy="294" r="48"/><circle cx="1020" cy="306" r="38"/></g><path d="M170 645 C350 590 515 602 700 658 C860 705 995 698 1115 640" fill="none" stroke="#d8ccb5" stroke-width="38" stroke-linecap="round" opacity=".85"/></svg>